<?xml version="1.0" encoding="UTF-8" standalone="no"?>
<!-- Created with Inkscape (http://www.inkscape.org/) -->

<svg
   xmlns:dc="http://purl.org/dc/elements/1.1/"
   xmlns:cc="http://creativecommons.org/ns#"
   xmlns:rdf="http://www.w3.org/1999/02/22-rdf-syntax-ns#"
   xmlns:svg="http://www.w3.org/2000/svg"
   xmlns="http://www.w3.org/2000/svg"
   xmlns:sodipodi="http://sodipodi.sourceforge.net/DTD/sodipodi-0.dtd"
   xmlns:inkscape="http://www.inkscape.org/namespaces/inkscape"
   width="300"
   height="300"
   viewBox="0 0 79.374998 79.375002"
   version="1.1"
   id="svg946"
   inkscape:version="0.92.5 (2060ec1f9f, 2020-04-08)"
   sodipodi:docname="magyarch-green-A-icon-300-300.svg">
  <defs
     id="defs940" />
  <sodipodi:namedview
     id="base"
     pagecolor="#ffffff"
     bordercolor="#666666"
     borderopacity="1.0"
     inkscape:pageopacity="0.0"
     inkscape:pageshadow="2"
     inkscape:zoom="0.35"
     inkscape:cx="158.57143"
     inkscape:cy="65.714286"
     inkscape:document-units="px"
     inkscape:current-layer="layer1"
     showgrid="false"
     units="px"
     inkscape:showpageshadow="false"
     inkscape:window-width="1920"
     inkscape:window-height="1029"
     inkscape:window-x="0"
     inkscape:window-y="0"
     inkscape:window-maximized="1" />
  <metadata
     id="metadata943">
    <rdf:RDF>
      <cc:Work
         rdf:about="">
        <dc:format>image/svg+xml</dc:format>
        <dc:type
           rdf:resource="http://purl.org/dc/dcmitype/StillImage" />
        <dc:title></dc:title>
      </cc:Work>
    </rdf:RDF>
  </metadata>
  <g
     inkscape:label="Layer 1"
     inkscape:groupmode="layer"
     id="layer1"
     transform="translate(0,-217.62498)">
    <path
       inkscape:connector-curvature="0"
       id="path1998"
       d="M 22.824251,252.14956 0,291.68335 h 17.66798 a 23.790434,23.790434 0 0 1 0.106685,-0.29352 23.790434,23.790434 0 0 1 1.035103,-2.14204 23.790434,23.790434 0 0 1 1.243081,-2.02701 23.790434,23.790434 0 0 1 1.439043,-1.8936 23.790434,23.790434 0 0 1 1.620311,-1.73994 23.790434,23.790434 0 0 1 1.786849,-1.5688 23.790434,23.790434 0 0 1 1.934064,-1.38387 23.790434,23.790434 0 0 1 2.062898,-1.18327 23.790434,23.790434 0 0 1 2.170508,-0.97072 23.790434,23.790434 0 0 1 2.257026,-0.7499 23.790434,23.790434 0 0 1 2.320516,-0.52079 23.790434,23.790434 0 0 1 2.360057,-0.28707 23.790434,23.790434 0 0 1 1.682908,-0.0598 23.790434,23.790434 0 0 1 2.375694,0.11968 23.790434,23.790434 0 0 1 2.350898,0.35516 23.790434,23.790434 0 0 1 2.303921,0.58795 23.790434,23.790434 0 0 1 2.234049,0.81524 23.790434,23.790434 0 0 1 2.141085,1.03512 23.790434,23.790434 0 0 1 2.027921,1.24217 23.790434,23.790434 0 0 1 1.892656,1.43998 23.790434,23.790434 0 0 1 1.739921,1.62033 23.790434,23.790434 0 0 1 1.569696,1.78686 23.790434,23.790434 0 0 1 1.38385,1.93409 23.790434,23.790434 0 0 1 1.182334,2.06291 23.790434,23.790434 0 0 1 0.815205,1.8209 H 79.375 l -39.687971,-68.74187 -7.59643,13.15669 3.827663,6.62942 h -7.654368 l -3.603154,6.24114 1.836538,3.18085 z m 16.862811,0.47111 10.088048,17.47304 H 29.599906 Z"
       style="opacity:1;fill:#2e8856;fill-opacity:1;stroke:none;stroke-width:2.4223845;stroke-miterlimit:4;stroke-dasharray:none;stroke-dashoffset:0;stroke-opacity:1"
       inkscape:export-filename="/home/foo/Documents/MagyArch/test-ascii/previview-2.png"
       inkscape:export-xdpi="96"
       inkscape:export-ydpi="96" />
  </g>
</svg>
